Coordinates
version=1
nRows=5
nColumns=63
inDegrees=yes

Units are S.I. units (second, meters, Newtons, ...)
If the header above contains a line with 'inDegrees', this indicates whether rotational values are in degrees (yes) or radians (no).

endheader
time	pelvis_tilt	pelvis_list	pelvis_rotation	pelvis_tx	pelvis_ty	pelvis_tz	hip_flexion_r	hip_adduction_r	hip_rotation_r	knee_angle_r	knee_angle_r_beta	ankle_angle_r	subtalar_angle_r	mtp_angle_r	hip_flexion_l	hip_adduction_l	hip_rotation_l	knee_angle_l	knee_angle_l_beta	ankle_angle_l	subtalar_angle_l	mtp_angle_l	L5_S1_Flex_Ext	L5_S1_Lat_Bending	L5_S1_axial_rotation	L4_L5_Flex_Ext	L4_L5_Lat_Bending	L4_L5_axial_rotation	L3_L4_Flex_Ext	L3_L4_Lat_Bending	L3_L4_axial_rotation	L2_L3_Flex_Ext	L2_L3_Lat_Bending	L2_L3_axial_rotation	L1_L2_Flex_Ext	L1_L2_Lat_Bending	L1_L2_axial_rotation	L1_T12_Flex_Ext	L1_T12_Lat_Bending	L1_T12_axial_rotation	Abs_r3	Abs_r2	Abs_r1	Abs_t1	Abs_t2	neck_flexion	neck_bending	neck_rotation	arm_flex_r	arm_add_r	arm_rot_r	elbow_flex_r	pro_sup_r	wrist_flex_r	wrist_dev_r	arm_flex_l	arm_add_l	arm_rot_l	elbow_flex_l	pro_sup_l	wrist_flex_l	wrist_dev_l
      0.00000000	     -1.76221756	     -4.90095420	     90.75577973	      0.21919489	      0.81949788	      0.72897665	      1.44542212	     -1.57884826	     -7.68989471	      4.99221673	      0.08713062	     21.82459473	     -0.35269306	      0.00000000	      0.90431105	      0.23764251	      6.59055340	      0.92181865	      0.01608877	     23.40759886	      1.30145543	      0.00000000	      0.01977582	      0.41235827	      0.18006158	      0.03672567	      0.54843650	      0.19131543	      0.03248969	      1.00260790	      0.19131543	      0.02260178	      1.00260790	      0.15755388	      0.01836382	      0.84088098	      0.14630003	      0.01129990	      0.63874296	      0.13504619	      0.14125669	      4.66467922	      1.00144849	      0.00000000	      0.00000000	     27.61395587	     -8.58201098	      4.95416262	      4.58855909	    -36.17158119	    -60.08622502	     15.97338501	      3.13187321	    -13.32259364	      6.06090397	     18.93704804	    -26.05326386	    241.80290357	     16.15495886	      7.89034528	     -8.19460307	     -1.87004693
      0.01886792	     -2.09989739	     -4.49256020	     91.34913157	      0.22024767	      0.82266620	      0.72680671	      0.56534590	     -1.71761740	     -5.96307042	      4.37669385	      0.07638772	     20.49017005	     -3.42684175	      0.00000000	      0.32275721	      0.45066762	      7.20343200	      0.90599091	      0.01581252	     22.02988791	      1.32793453	      0.00000000	      0.00962284	      0.26907865	      0.04957385	      0.01787057	      0.35787461	      0.05267222	      0.01580936	      0.65423784	      0.05267222	      0.01099794	      0.65423784	      0.04337712	      0.00893577	      0.54870519	      0.04027875	      0.00549849	      0.41680283	      0.03718039	      0.06873498	      3.04387153	      0.27571489	      0.00000000	      0.00000000	     26.94116964	     -7.01601573	      1.57945878	      1.61472346	    -45.56858530	     24.73415042	      7.82332126	      4.52954976	     -8.03078957	      5.61759361	     16.06457743	    -31.53003990	    255.51199264	     14.02656297	     10.46679822	     -8.80806657	     -6.08734692
      0.03773585	     -2.21419112	     -4.20828614	     91.81215833	      0.22041680	      0.82437171	      0.72530497	     -0.03339540	     -1.73248845	     -4.93363552	      4.00467835	      0.06989482	     19.69111016	     -5.47998707	      0.00000000	     -0.04691147	      0.49388245	      7.17019929	      0.89204468	      0.01556912	     21.52890514	      2.23768821	      0.00000000	      0.00492746	      0.20138099	     -0.02504539	      0.00915079	      0.26783671	     -0.02661072	      0.00809532	      0.48963773	     -0.02661072	      0.00563159	      0.48963773	     -0.02191471	      0.00457564	      0.41065611	     -0.02034938	      0.00281555	      0.31193915	     -0.01878404	      0.03519635	      2.27806201	     -0.13929492	      0.00000000	      0.00000000	     26.33501804	     -6.03036449	     -0.26655743	      2.27750919	    -48.29247997	     43.50835873	      5.52300261	      5.16139892	     -6.62722313	      4.05998146	     14.61708027	    -35.45924397	    261.91808924	     13.08661126	     15.81137515	    -11.72205347	     -4.81047488
      0.05660377	     -2.26630928	     -4.02049839	     92.06526184	      0.22046330	      0.82540235	      0.72451741	     -0.36106864	     -1.75920724	     -4.74271465	      3.86532931	      0.06746272	     19.38224751	     -6.13715719	      0.00000000	     -0.25420356	      0.49983571	      6.46661474	      0.88518897	      0.01544946	     21.52240064	      3.83450434	      0.00000000	      0.00105356	      0.16805892	     -0.02698552	      0.00195656	      0.22351836	     -0.02867211	      0.00173089	      0.40861846	     -0.02867211	      0.00120411	      0.40861846	     -0.02361233	      0.00097833	      0.34270575	     -0.02192573	      0.00060200	      0.26032327	     -0.02023914	      0.00752547	      1.90111611	     -0.15008536	      0.00000000	      0.00000000	     25.87921525	     -5.75735096	     -1.55427484	      2.78684942	    -49.92970765	     49.56394107	      4.53284589	      4.63019072	     -6.40024828	      3.64374055	     15.28389498	    -37.90927206	    259.81309026	     13.54994948	     13.90983476	    -11.13954366	     -1.60477672
      0.07547170	     -2.25753805	     -3.90810735	     92.23704957	      0.22029706	      0.82610576	      0.72428275	     -0.53378505	     -1.76191426	     -4.90956224	      3.79918125	      0.06630822	     19.22870618	     -6.21110867	      0.00000000	     -0.34208043	      0.48167281	      6.35560159	      0.85725288	      0.01496189	     21.55844380	      4.49424775	      0.00000000	     -0.00420263	      0.16090954	      0.04773256	     -0.00780470	      0.21400969	      0.05071584	     -0.00690450	      0.39123546	      0.05071584	     -0.00480318	      0.39123546	      0.04176599	     -0.00390256	      0.32812674	      0.03878270	     -0.00240138	      0.24924888	      0.03579942	     -0.03001895	      1.82024091	      0.26547416	      0.00000000	      0.00000000	     25.56197627	     -5.97680161	     -2.52498468	      2.96587538	    -51.05769104	     50.12089912	      4.35602510	      4.97841855	     -6.79380748	      3.78684469	     16.69562989	    -38.87170240	    259.05182060	     14.31429440	     12.56301976	    -10.38255077	      3.39385952
